<svg id="Layer_2" data-name="Layer 2" xmlns="http://www.w3.org/2000/svg" width="27" height="27" viewBox="0 0 27 27">
  <g id="invisible_box" data-name="invisible box">
    <rect id="Rectangle_44" data-name="Rectangle 44" width="27" height="27" fill="none"/>
  </g>
  <g id="icons_Q2" data-name="icons Q2" transform="translate(1.125 1.125)">
    <path id="Path_28" data-name="Path 28" d="M14.375,2a12.319,12.319,0,1,0,8.767,3.608A12.375,12.375,0,0,0,14.375,2Zm0,4.5a4.5,4.5,0,1,1-4.5,4.5,4.5,4.5,0,0,1,4.5-4.5Zm0,18a10.238,10.238,0,0,1-6.863-2.7A14.85,14.85,0,0,1,14.375,20a14.85,14.85,0,0,1,6.862,1.8,10.237,10.237,0,0,1-6.863,2.7Z" transform="translate(-2 -2)" fill="#707070"/>
  </g>
</svg>
