<svg xmlns="http://www.w3.org/2000/svg" width="15.229" height="16.921" viewBox="0 0 15.229 16.921"><defs><style>.a{fill:#545454;}</style></defs><path class="a" d="M9.576,10.614H7.884v1.692H9.576Zm3.384,0H11.268v1.692H12.96Zm3.384,0H14.653v1.692h1.692Zm1.692-5.922h-.846V3H15.5V4.692H8.73V3H7.038V4.692H6.192A1.684,1.684,0,0,0,4.508,6.384L4.5,18.229a1.692,1.692,0,0,0,1.692,1.692H18.037a1.7,1.7,0,0,0,1.692-1.692V6.384A1.7,1.7,0,0,0,18.037,4.692Zm0,13.537H6.192V8.922H18.037Z" transform="translate(-4.5 -3)"/></svg>