<svg id="Layer_20" data-name="Layer 20" xmlns="http://www.w3.org/2000/svg" viewBox="0 0 434 430.9"><defs><style>.cls-1{fill:#3656a6;}</style></defs><title>Facebook Icon - Connected</title><path class="cls-1" d="M291.08,456.61V305.71H341.4c3.24-21.15,6.41-41.81,9.66-63H290.83c0-4.58,0-8.77,0-12.95.15-11.18-.31-22.43.66-33.54,1.45-16.8,12.59-26.9,29.5-27.89,5.42-.32,10.85-.25,16.28-.3,5.23,0,10.46,0,16.05,0V114.5c-23.47-3-47-6.76-70.62-1.85-32.34,6.71-54.67,30.89-58.1,64.37-1.75,17-1.07,34.2-1.44,51.31-.1,4.55,0,9.1,0,14.21H168.27v63h54.58v151C132.34,445,39.94,361.55,40,242.64,40.06,123,135.62,26.9,255.62,25.72c117-1.15,213.25,91.48,218.17,207.05C479,355.92,385.45,444.24,291.08,456.61Z" transform="translate(-40 -25.71)"/></svg>