<svg id="Layer_19" data-name="Layer 19" xmlns="http://www.w3.org/2000/svg" viewBox="0 0 434 430.9"><defs><style>.cls-1{fill:#a9a9a9;}</style></defs><title>Facebook Icon - Disconnect</title><path class="cls-1" d="M284.08,465.45V314.55H334.4c3.24-21.15,6.41-41.81,9.66-63H283.83c0-4.58,0-8.77,0-12.95.15-11.18-.31-22.43.66-33.54,1.45-16.79,12.59-26.9,29.5-27.89,5.42-.32,10.85-.25,16.28-.3,5.23,0,10.46,0,16.05,0V123.34c-23.47-3-47-6.76-70.62-1.85-32.34,6.71-54.67,30.89-58.1,64.37-1.75,17-1.07,34.2-1.44,51.31-.1,4.55,0,9.1,0,14.21H161.27v63h54.58V465.43C125.34,453.81,32.94,370.39,33,251.48c.06-119.62,95.62-215.74,215.62-216.92,117-1.15,213.25,91.48,218.17,207.05C472,364.76,378.45,453.08,284.08,465.45Z" transform="translate(-33 -34.55)"/></svg>