<svg id="Layer_21" data-name="Layer 21" xmlns="http://www.w3.org/2000/svg" viewBox="0 0 410 410"><defs><style>.cls-1{fill:#a9a9a9;}.cls-2{fill:#fff;}</style></defs><title>Google Icon - Disconnect</title><circle class="cls-1" cx="205" cy="205" r="205"/><path class="cls-2" d="M350.33,139.08c-1.19,1.31-1.8,2-2.47,2.73-12.55,12.57-25.16,25.1-37.62,37.77-2.06,2.08-3.46,2-5.67.35a80.63,80.63,0,0,0-41.51-16.54c-24.92-2.52-47.12,4.15-66.33,20.45-16.84,14.29-26.46,32.48-29.59,54.21-6.42,44.49,23.54,87.58,67,96.81,24.72,5.24,48,1.88,69.48-11.48,15.07-9.37,24-23.36,28.28-40.4.66-2.6.07-3.15-3.23-3.15h-64.5c-2.36,0-4.73-.15-7.07,0-2.79.24-3.7-1.14-3.69-3.62,0-2,0-3.92,0-5.89q0-20.91,0-41.82c0-5,.44-5.48,5.58-5.49L385,223c5.29,0,5.68.29,6.5,5.7,5.67,37.65-.47,73.18-20.81,105.48-20.12,31.92-49.52,51.23-86.27,59.4a140,140,0,0,1-43.86,2.82c-34.11-3.29-63.92-16.43-88.76-40.18-22.58-21.58-37.14-47.85-42.65-78.53-8.22-45.73,2.31-87,32.21-122.85,21.76-26,49.64-42.56,83-48.88,46-8.74,87.45,2.06,123.79,31.81A18.1,18.1,0,0,0,350.33,139.08Z" transform="translate(-45 -45)"/></svg>