<svg id="Layer_23" data-name="Layer 23" xmlns="http://www.w3.org/2000/svg" viewBox="0 0 344.22 344.19"><defs><style>.cls-1{fill:#a9a9a9;}</style></defs><title>Instagram Icon - Disconnect</title><path class="cls-1" d="M422.68,223.18c-.09-20.33.21-40.73-3.82-60.81-5.2-25.86-18.41-46.44-41-60.5-17.21-10.72-36.47-14.5-56.37-15.12l-2.88-.08h0c-14.28-.43-28.56-.65-42.84-.85-8.08,0-16.63,0-25.14,0v.05h-7.42c-.29,0-.58,0-.86,0-13.46-.06-26.92-.19-40.37.08-6.38.13-12.77.21-19.15.48-10.54.45-21,1.43-31.36,4-32.52,8.13-54.77,27.72-65.8,59.59-6,17.35-6.61,35.48-6.82,53.53q-.6,51.46-.11,102.95c.13,16.93.31,33.94,4.47,50.52,8.11,32.34,27.5,54.56,59.26,65.65,17.36,6.06,35.46,6.74,53.49,7,34.44.44,68.89.38,103.33.11,16.92-.13,33.93-.32,50.52-4.47,32.52-8.13,54.76-27.72,65.8-59.6,6-17.36,6.55-35.49,6.82-53.53C422.87,282.52,422.8,252.85,422.68,223.18Zm-31.15,78.44c-.22,15.78,0,31.66-3.57,47.22-6.58,28.72-26.58,45.22-54.94,47.62-27.37,2.31-54.94,2.35-74.52,3.09-31.3-.67-54.68-.82-78-1.84a109.82,109.82,0,0,1-27-4.39c-23.58-7.17-37-24.12-40.68-48-2.25-14.44-2.81-29.23-3-43.88q-.66-43.56,0-87.13c.22-15.78,0-31.65,3.52-47.23,5.74-25.75,23.85-43.5,50-47.11a363.58,363.58,0,0,1,44.27-3q43.17-.67,86.37,0c15.9.23,31.89,0,47.6,3.53,25.67,5.72,43.39,23.87,47,50.06a357.31,357.31,0,0,1,3,43.52Q392.18,257.86,391.53,301.62Z" transform="translate(-78.55 -85.81)"/><path class="cls-1" d="M250.61,346.24c-48.19,0-87.68-39.19-88.47-86.32-.84-50.45,40.51-91.15,89.68-90.5,47.3.62,86.68,39.9,87.32,86.8C339.83,306,299.23,346.8,250.61,346.24Zm.09-31A57.36,57.36,0,1,0,193.3,258,57.65,57.65,0,0,0,250.7,315.24Z" transform="translate(-78.55 -85.81)"/><path class="cls-1" d="M363.13,165.93a20.75,20.75,0,0,1-20.64,20.92c-11.37-.08-21-9.72-20.82-20.93a20.74,20.74,0,0,1,21.05-20.51A20.18,20.18,0,0,1,363.13,165.93Z" transform="translate(-78.55 -85.81)"/></svg>