<svg id="Layer_29" data-name="Layer 29" xmlns="http://www.w3.org/2000/svg" viewBox="0 0 419.34 419.34"><defs><style>.cls-1{fill:#aaa;}</style></defs><title>Tiktok Icon - Disconnect</title><path class="cls-1" d="M292.72,352.23a9.63,9.63,0,0,0-9.49,9.62,9.74,9.74,0,0,0,9.55,9.59,9.56,9.56,0,0,0,9.6-9.67A9.44,9.44,0,0,0,292.72,352.23Zm0,0a9.63,9.63,0,0,0-9.49,9.62,9.74,9.74,0,0,0,9.55,9.59,9.56,9.56,0,0,0,9.6-9.67A9.44,9.44,0,0,0,292.72,352.23Zm0,0a9.63,9.63,0,0,0-9.49,9.62,9.74,9.74,0,0,0,9.55,9.59,9.56,9.56,0,0,0,9.6-9.67A9.44,9.44,0,0,0,292.72,352.23Zm0,0a9.63,9.63,0,0,0-9.49,9.62,9.74,9.74,0,0,0,9.55,9.59,9.56,9.56,0,0,0,9.6-9.67A9.44,9.44,0,0,0,292.72,352.23Zm0,0a9.63,9.63,0,0,0-9.49,9.62,9.74,9.74,0,0,0,9.55,9.59,9.56,9.56,0,0,0,9.6-9.67A9.44,9.44,0,0,0,292.72,352.23Zm0,0a9.63,9.63,0,0,0-9.49,9.62,9.74,9.74,0,0,0,9.55,9.59,9.56,9.56,0,0,0,9.6-9.67A9.44,9.44,0,0,0,292.72,352.23ZM250,40.33C134.2,40.33,40.33,134.2,40.33,250S134.2,459.67,250,459.67,459.67,365.8,459.67,250,365.8,40.33,250,40.33ZM192,191.48a67.45,67.45,0,0,1,39.62-7.55c1.58.16,2.19.8,2.19,2.43-.05,11.41,0,22.82,0,34.23,0,1.93-.15,2-2,1.55-18.26-4.59-37,8.6-38.75,27.33a31.44,31.44,0,1,0,62.64,5.3c.07-1.45.11-2.91.11-4.36q0-34.14,0-68.29v-1.39h.12v-4.54q0-29.94,0-59.9c0-3.43-.1-6.86-.1-10.3,0-2.49.33-2.79,2.82-2.78,10.36,0,20.72,0,31.09.07,4.44,0,3.76-.09,4,3.72,1.63,23.94,20.52,44.4,44.27,47.94,2,.3,4,.51,6.06.66,1.3.1,1.88.66,1.88,2,0,11.24,0,22.47,0,33.71,0,1.85-.38,2.11-2.79,2A91,91,0,0,1,302,181.83a52.8,52.8,0,0,1-6.75-4.3c-.4-.31-.77-.83-1.36-.45a1.45,1.45,0,0,0-.57,1.39c.09,2.09.23,4.18.23,6.27,0,21.53,0,43.07,0,64.6,0,12.68-1.94,24.89-8.1,36.14-10.39,19-26.31,30.56-47.45,35-11.11,2.35-22.2,2.67-33.05-1.08-18.08-6.25-32.91-16.77-41.91-34.11C144.7,249.86,158.89,209.08,192,191.48Zm0,147.3a5.74,5.74,0,1,1-5.8-5.71A5.76,5.76,0,0,1,191.94,338.78Zm-16.79,3.47a1.32,1.32,0,0,1-1.53,1c-2.27-.06-4.54,0-6.8,0-1.2-.05-1.55.51-1.54,1.54.05,10.59.06,21.17.18,31.75,0,5,.15,5-4.81,5-1.68,0-3.38-.08-5.06,0-1.42.09-1.77-.47-1.76-1.82,0-11.51,0-23,.06-34.55,0-1.63-.43-2.08-2-2-2.73.13-5.47,0-8.2.07-1.34,0-1.7-.42-1.65-1.7.09-2.38.05-4.77,0-7.15,0-.9.19-1.39,1.25-1.39,11.51,0,23,0,34.74,0C177,336.29,176.06,339.26,175.15,342.25Zm16.79,38.11c0,.92-.41,1.23-1.27,1.22-3,0-5.93,0-8.9,0-1.17,0-1.28-.61-1.28-1.55,0-5,0-10,0-15h0c0-5,0-10,0-15,0-1,.33-1.47,1.39-1.46,3,0,5.93,0,8.89,0,.91,0,1.23.37,1.23,1.25Q191.92,365.1,191.94,380.36Zm31.34,1.18c-.93,0-1.32-.85-1.78-1.52-2.94-4.39-5.94-8.75-8.8-13.19-.81-1.25-1.37-1.22-2.36-.28a6.38,6.38,0,0,0-2.27,5.24c.21,2.79.05,5.58.07,8.36,0,1.13-.32,1.53-1.49,1.5-2.73-.07-5.47-.09-8.2,0-1.32,0-1.79-.46-1.76-1.69.06-2.73.13-5.47.12-8.2,0-12.16-.08-24.32-.11-36.48,0-2.4,0-2.4,2.39-2.41s4.77.06,7.15,0c1.39-.05,1.8.45,1.79,1.82-.06,6.86,0,13.72,0,21.05,3.68-3.57,7.07-6.81,10.38-10.12a4.2,4.2,0,0,1,3.24-1.33c3.53.06,7.05,0,10.94,0-3.06,3.47-5.94,6.63-9,9.62a43.86,43.86,0,0,1-3.32,3.08c-1.15.93-1.2,1.7-.34,2.91,4.66,6.53,9.24,13.11,13.84,19.68.39.56.77,1.14,1.33,2C231,381.56,227.13,381.58,223.28,381.54Zm46.66-38.26c-2.44,0-4.89.05-7.33,0-1.33-.05-1.73.49-1.72,1.72.05,11.7.05,23.4.13,35.09,0,1.36-.46,1.65-1.71,1.61-2.68-.1-5.36-.12-8,0-1.59.07-2-.54-2-2,0-11.34,0-22.69,0-34,0-2.34,0-2.34-2.25-2.34-2.68,0-5.36-.05-8,0-1.17,0-1.53-.39-1.5-1.5.06-2.45,0-4.89,0-7.34,0-.84.09-1.41,1.21-1.41,11.76,0,23.51,0,35.27,0,.1,0,.2.08.36.15-.94,3-1.89,6-2.79,9C271.34,343.09,270.81,343.29,269.94,343.28Zm42.63,18.51c0,11.31-8.6,19.79-20.07,19.78-10.91,0-19.47-8.84-19.47-20.09A19.74,19.74,0,0,1,292.81,342C304.16,342,313.13,351.65,312.57,361.79Zm33.71,19.8c-.89,0-1.19-.61-1.57-1.17-2.95-4.38-5.88-8.78-8.83-13.17-1.18-1.76-1.29-1.74-2.87-.37a5.49,5.49,0,0,0-2,4.6c.09,2.9,0,5.81.05,8.72,0,1.08-.36,1.41-1.41,1.39-2.79,0-5.59-.07-8.38,0-1.22,0-1.63-.38-1.62-1.6.06-4,0-7.92,0-11.87,0-11,0-22-.14-33,0-1.64.39-2.27,2.13-2.17,2.49.15,5,.1,7.5,0,1.41-.05,1.93.33,1.91,1.84-.08,6.8,0,13.6,0,20.86,3.48-3.41,6.71-6.49,9.84-9.66a5.29,5.29,0,0,1,4.16-1.75c3.6.1,7.2,0,10.92,0-.14.87-.85,1.24-1.35,1.72-3.86,3.79-7.72,7.58-11.65,11.29-1,.94-.71,1.58-.06,2.5Q350,369.86,357,379.94c.32.46.59.95,1,1.63C353.92,381.57,350.1,381.55,346.28,381.59Zm-53.56-29.36a9.63,9.63,0,0,0-9.49,9.62,9.74,9.74,0,0,0,9.55,9.59,9.56,9.56,0,0,0,9.6-9.67A9.44,9.44,0,0,0,292.72,352.23Zm0,0a9.63,9.63,0,0,0-9.49,9.62,9.74,9.74,0,0,0,9.55,9.59,9.56,9.56,0,0,0,9.6-9.67A9.44,9.44,0,0,0,292.72,352.23Zm0,0a9.63,9.63,0,0,0-9.49,9.62,9.74,9.74,0,0,0,9.55,9.59,9.56,9.56,0,0,0,9.6-9.67A9.44,9.44,0,0,0,292.72,352.23Zm0,0a9.63,9.63,0,0,0-9.49,9.62,9.74,9.74,0,0,0,9.55,9.59,9.56,9.56,0,0,0,9.6-9.67A9.44,9.44,0,0,0,292.72,352.23Zm0,0a9.63,9.63,0,0,0-9.49,9.62,9.74,9.74,0,0,0,9.55,9.59,9.56,9.56,0,0,0,9.6-9.67A9.44,9.44,0,0,0,292.72,352.23Z" transform="translate(-40.33 -40.33)"/></svg>