<svg id="Layer_28" data-name="Layer 28" xmlns="http://www.w3.org/2000/svg" viewBox="0 0 400.71 401.04"><defs><style>.cls-1{fill:#429dd6;}</style></defs><title>Twitter Icon - Connect</title><path class="cls-1" d="M451,249.89c1.72,109-90.7,204.16-207,200.53-104.17-3.25-193.27-90.31-193.67-200.1C49.89,141,141.4,46.29,257,49.56,361.6,52.52,452.11,139.94,451,249.89ZM134.66,324.52a81.35,81.35,0,0,0,15.68,9c29.77,13.47,60.68,15.68,92.15,8,30.88-7.49,55.72-24.5,74.45-50.27,17.84-24.54,27.31-52,27.62-82.31.06-5.11,1.54-8.28,5.52-11.39a79.4,79.4,0,0,0,18.08-20c-8.69,2.54-16.23,5.67-24.61,6a52.43,52.43,0,0,0,18.62-25.95c-7.74,4.73-15.18,7.47-22.7,10-4.84,1.66-9.34,2.35-13-2.64-1-1.41-2.94-2.18-4.52-3.13-17-10.23-34.36-10.47-51.29-.28-15.82,9.51-22.86,24.27-23.21,42.55-.06,3,2.69,6.77-.22,8.77-2.38,1.64-6.06,0-9.16-.4-34.48-4.62-63-20.43-85.9-46.35-2.57-2.89-3.5-2.49-4.83.67-6.83,16.2-6,31.8,3.18,46.94,3,4.9,7.5,8.38,11.58,13.26-6.08.2-10.94-1.5-15.69-3.71-1.11-.52-2.25-1.82-3.48-1s-.59,2.4-.46,3.61c1.92,17.32,10.23,30.51,25.6,39,3.26,1.8,6.85,3,11,4.75a35.43,35.43,0,0,1-16.6,1.07c-2.31-.42-3.26,0-2.15,2.62,6.95,16.2,18.76,26.41,36.26,29.73,2,.38,4,.8,7,1.41C182.49,320,159.78,326.24,134.66,324.52Z" transform="translate(-50.29 -49.48)"/></svg>