<svg id="Layer_27" data-name="Layer 27" xmlns="http://www.w3.org/2000/svg" viewBox="0 0 387.09 387.41"><defs><style>.cls-1{fill:#aaa;}</style></defs><title>Twitter Icon - Disconnect</title><path class="cls-1" d="M462.54,250.52c1.66,105.28-87.61,197.23-200,193.72C161.93,441.09,75.86,357,75.47,250.93,75.09,145.32,163.48,53.85,275.15,57,376.2,59.86,463.64,144.31,462.54,250.52ZM157,322.61a77.69,77.69,0,0,0,15.14,8.65c28.76,13,58.62,15.15,89,7.78C291,331.8,315,315.37,333.06,290.47c17.23-23.7,26.38-50.18,26.68-79.51.05-4.93,1.48-8,5.33-11a76.8,76.8,0,0,0,17.46-19.31c-8.39,2.45-15.67,5.47-23.77,5.78a50.63,50.63,0,0,0,18-25.07c-7.47,4.57-14.66,7.22-21.92,9.7-4.68,1.6-9,2.27-12.51-2.55-1-1.36-2.84-2.11-4.36-3-16.46-9.87-33.2-10.11-49.55-.27-15.28,9.19-22.08,23.45-22.42,41.11-.06,2.9,2.59,6.54-.21,8.47-2.3,1.58-5.86,0-8.85-.39-33.31-4.46-60.82-19.73-83-44.77-2.48-2.8-3.37-2.4-4.66.65-6.59,15.65-5.8,30.72,3.08,45.34,2.87,4.74,7.24,8.1,11.18,12.81-5.88.19-10.57-1.45-15.16-3.58-1.07-.5-2.17-1.76-3.36-.93s-.57,2.32-.44,3.48c1.85,16.74,9.88,29.48,24.72,37.65,3.15,1.73,6.63,2.88,10.62,4.58a34.19,34.19,0,0,1-16,1c-2.23-.4-3.16,0-2.08,2.54,6.71,15.65,18.12,25.51,35,28.71,1.94.37,3.87.78,6.81,1.37C203.17,318.26,181.24,324.28,157,322.61Z" transform="translate(-75.47 -56.93)"/></svg>