<svg id="Layer_26" data-name="Layer 26" xmlns="http://www.w3.org/2000/svg" viewBox="0 0 434.63 435"><defs><style>.cls-1{fill:#aaa;}</style></defs><title>Zalo Icon - Disconnect</title><path class="cls-1" d="M252.68,34.5h14.17a25.91,25.91,0,0,0,3,.57c4.52.35,9.07.54,13.59,1a201.22,201.22,0,0,1,44.08,9.39,218,218,0,0,1,117.18,92.32,213.18,213.18,0,0,1,31.93,99.9c.69,10.66.09,21.42-.34,32.12a171.56,171.56,0,0,1-6.06,37.11,217.22,217.22,0,0,1-208.5,162.61c-8.33.09-16.69-.69-25-1.3a186.35,186.35,0,0,1-35.49-6.59A212.61,212.61,0,0,1,144,436.29,217,217,0,0,1,42.37,256.63a130.6,130.6,0,0,1,.4-14.13c.86-9.92,1.41-19.91,3.11-29.69a207.58,207.58,0,0,1,22.06-63.27,217.32,217.32,0,0,1,107.69-98,209.22,209.22,0,0,1,74.55-16.52A13.85,13.85,0,0,0,252.68,34.5ZM226.82,193.42c-.47-7-7-13.85-13.74-14.39-5.15-.4-10.33-.42-15.49-.42-12.3,0-24.59.14-36.89.16-8.18,0-16.36-.12-24.53-.15-7.68,0-15.36,0-23,0-7,.06-13.94-.12-20.87.43a13.22,13.22,0,0,0-12.33,10.14,28.56,28.56,0,0,0-1,7.65c-.08,15.23,0,30.46,0,45.69,0,7.62-.12,15.23-.14,22.85,0,9.64,0,19.29,0,28.93q.06,8.25.37,16.5c.24,6.18,4,11.17,9.92,12.68a43.91,43.91,0,0,0,9.37,1.06c5.48.16,11,.05,16.44.05.53,6.83,1,13.39,1.61,20.54,4.58-3.39,9-6.22,12.86-9.6,9.17-7.93,19.68-11.76,31.77-11.21,3.48.16,6.95.73,10.43.73,9.75,0,19.49-.17,29.24-.33,4.38-.07,8.77-.16,13.14-.45,8-.54,13.21-7.42,12.85-16.77a11.69,11.69,0,0,0-1.19.12c-3.56.74-7.09,2-10.67,2.13-11.37.42-22.74.56-34.11.55-13.65,0-27.3-.24-41-.47-6.73-.11-11.94-4.1-12.93-10-.8-4.8,1.21-8.87,4-12.62q19.86-26.72,39.69-53.44c2.45-3.29,4.75-6.7,7.28-10.27a10.51,10.51,0,0,0-1.31-.29c-9,0-18,0-27-.11-3.79,0-7.69.23-11.35-.53-6.1-1.28-9.76-7.15-9.82-14.54-.05-7.12,2.86-11.7,9.26-13.41a41.77,41.77,0,0,1,10.59-1.19c25.16-.1,50.31-.05,75.47-.05ZM269.41,221c-10.35.67-21.38,5.88-28.42,18a51.74,51.74,0,0,0-7.05,23.51c-.74,13.71,3.12,25.74,12.46,35.91,6.92,7.53,15.16,12.49,25.67,12.66,6.23.1,11.93-2,17.37-4.88a4.93,4.93,0,0,1,2.88-.49c4.47.67,8.91,1.67,13.4,2.22,6.89.85,11.18-1.36,12.37-7.47a26.11,26.11,0,0,0,.59-4.57c.19-8.85.41-17.71.41-26.56,0-9.73-.22-19.46-.37-29.18-.08-4.79-1.9-8.94-4.58-12.84a6.79,6.79,0,0,0-7.34-3.08c-3.66.65-7.28,1.54-10.94,2.2a4.7,4.7,0,0,1-2.68-.29A50.16,50.16,0,0,0,269.41,221Zm175.38,45.56c0-1.22.06-2.45,0-3.67s-.29-2.41-.45-3.61c-1.5-11.09-6-20.65-14.54-28.09-8.75-7.67-19.07-10.74-30.58-10.2-11.7.54-21.58,5.1-28.56,14.47-12.45,16.73-13.7,35.1-5.17,53.74,10.09,22.05,36.6,29.85,57.29,17.43C437.85,297.57,444.4,283.72,444.79,266.55Zm-91.34-18.8c0-16.19.05-32.39,0-48.58,0-5-1.77-9.44-6.48-11.73s-9.61-2.43-14.1.73c-3.9,2.74-4.94,7-4.95,11.39-.1,32.06-.25,64.13.05,96.2.1,10,6,14.74,17.13,12.94a7.7,7.7,0,0,0,6.09-4.75,25.36,25.36,0,0,0,2.19-8.83C353.56,279.33,353.45,263.54,353.45,247.75Zm-176.8,31.72.35.76c7.84,0,15.67,0,23.5,0,7.6,0,15.19-.17,22.79,0,2.24,0,2.71-.58,2.7-2.68-.07-20.35,0-40.69,0-61,0-.76-.1-1.51-.18-2.76Z" transform="translate(-42.33 -34.5)"/><path class="cls-1" d="M293.55,265.9c-.74,3.8-1,6.81-1.93,9.64-2.31,7.34-8.76,11.3-16.38,10.34-9-1.13-13.89-6.17-15.18-15.22-.84-5.87-.49-11.5,2.37-16.78,3.1-5.7,7.92-8.85,14.45-8.62,6.28.23,10.73,3.8,13.21,9.31C291.79,258.34,292.55,262.53,293.55,265.9Z" transform="translate(-42.33 -34.5)"/><path class="cls-1" d="M387.07,267.22c.27-6.24.91-11.73,4.79-16.3,3.06-3.62,7.13-4.82,11.53-4.57,10.57.6,16,6.53,16.84,17.2.37,4.85.29,9.52-1.64,14A16.22,16.22,0,0,1,401,286.88a15.45,15.45,0,0,1-13.36-14.22C387.44,270.65,387.22,268.65,387.07,267.22Z" transform="translate(-42.33 -34.5)"/></svg>