<svg id="Layer_25" data-name="Layer 25" xmlns="http://www.w3.org/2000/svg" viewBox="0 0 434.63 435"><defs><style>.cls-1{fill:#1b75bc;}</style></defs><title>Zalo Icon - Connect</title><path class="cls-1" d="M243.24,32.5H257.4a26.72,26.72,0,0,0,3,.57c4.53.35,9.07.54,13.59,1a201.22,201.22,0,0,1,44.08,9.39,217.93,217.93,0,0,1,117.18,92.32,213.07,213.07,0,0,1,31.93,99.9c.69,10.66.09,21.42-.33,32.12a171.58,171.58,0,0,1-6.07,37.11A217.2,217.2,0,0,1,252.31,467.49c-8.34.09-16.7-.69-25-1.3a186.2,186.2,0,0,1-35.49-6.59,212.48,212.48,0,0,1-57.21-25.31A217,217,0,0,1,32.92,254.63a130.61,130.61,0,0,1,.41-14.13c.86-9.92,1.41-19.91,3.11-29.69a207.55,207.55,0,0,1,22.05-63.27,217.32,217.32,0,0,1,107.69-98,209.22,209.22,0,0,1,74.55-16.52A14.15,14.15,0,0,0,243.24,32.5ZM217.38,191.42c-.47-7-7-13.85-13.75-14.39-5.14-.4-10.32-.42-15.49-.42-12.29,0-24.59.14-36.89.16-8.17,0-16.35-.12-24.53-.15-7.67,0-15.35,0-23,0-7,.06-13.94-.12-20.86.43a13.24,13.24,0,0,0-12.34,10.14,29,29,0,0,0-1,7.65c-.08,15.23,0,30.46,0,45.69,0,7.62-.12,15.23-.14,22.85,0,9.64,0,19.29,0,28.93q0,8.25.37,16.5a13.12,13.12,0,0,0,9.92,12.68A43.76,43.76,0,0,0,89,322.59c5.47.16,11,.05,16.43.05.54,6.83,1,13.39,1.61,20.54,4.58-3.39,9-6.22,12.86-9.6,9.18-7.93,19.68-11.76,31.78-11.21,3.48.16,7,.73,10.43.73,9.74,0,19.49-.17,29.23-.33,4.38-.07,8.77-.16,13.14-.45,8-.54,13.21-7.42,12.85-16.77a11.22,11.22,0,0,0-1.18.12c-3.56.74-7.1,2-10.68,2.13-11.36.42-22.74.56-34.11.55-13.65,0-27.29-.24-40.94-.47-6.73-.11-12-4.1-12.93-10-.81-4.8,1.2-8.87,4-12.62q19.85-26.72,39.69-53.44c2.44-3.29,4.75-6.7,7.27-10.27a10.13,10.13,0,0,0-1.31-.29c-9,0-18,0-27-.11-3.8,0-7.69.23-11.36-.53-6.09-1.28-9.75-7.15-9.81-14.54-.06-7.12,2.85-11.7,9.26-13.41a41.72,41.72,0,0,1,10.59-1.19c25.15-.1,50.31-.05,75.47-.05ZM260,219c-10.35.67-21.38,5.88-28.42,18a51.87,51.87,0,0,0-7.06,23.51c-.74,13.71,3.13,25.74,12.47,35.91,6.92,7.53,15.16,12.49,25.66,12.66,6.23.1,11.93-2,17.37-4.88a4.94,4.94,0,0,1,2.88-.49c4.48.67,8.92,1.67,13.41,2.22,6.88.85,11.17-1.36,12.37-7.47a27.09,27.09,0,0,0,.59-4.57c.19-8.85.41-17.71.41-26.56,0-9.73-.22-19.46-.38-29.18-.08-4.79-1.89-8.94-4.58-12.84a6.78,6.78,0,0,0-7.34-3.08c-3.66.65-7.28,1.54-10.94,2.2a4.72,4.72,0,0,1-2.68-.29A50.09,50.09,0,0,0,260,219Zm175.38,45.56c0-1.22.06-2.45,0-3.67s-.28-2.41-.45-3.61c-1.49-11.09-6-20.65-14.53-28.09-8.75-7.67-19.07-10.74-30.59-10.2-11.7.54-21.58,5.1-28.55,14.47-12.45,16.73-13.7,35.1-5.17,53.74,10.09,22.05,36.6,29.85,57.29,17.43C428.41,295.57,435,281.72,435.35,264.55ZM344,245.75c0-16.19.05-32.39,0-48.58,0-5-1.77-9.44-6.47-11.73s-9.61-2.43-14.1.73c-3.91,2.74-4.94,7-4.95,11.39-.11,32.06-.26,64.13.05,96.2.1,10,6,14.74,17.13,12.94a7.7,7.7,0,0,0,6.09-4.75,25.35,25.35,0,0,0,2.18-8.83C344.12,277.33,344,261.54,344,245.75ZM167.2,277.47l.36.76c7.83,0,15.66,0,23.5,0,7.59,0,15.19-.17,22.78,0,2.25,0,2.72-.58,2.71-2.68-.07-20.35,0-40.69-.05-61,0-.76-.09-1.51-.18-2.76Z" transform="translate(-32.88 -32.5)"/><path class="cls-1" d="M284.11,263.9c-.74,3.8-1,6.81-1.93,9.64-2.32,7.34-8.77,11.3-16.38,10.34-9-1.13-13.89-6.17-15.18-15.22-.84-5.87-.5-11.5,2.37-16.78,3.09-5.7,7.91-8.85,14.44-8.62,6.28.23,10.73,3.8,13.22,9.31C282.35,256.34,283.11,260.53,284.11,263.9Z" transform="translate(-32.88 -32.5)"/><path class="cls-1" d="M377.63,265.22c.27-6.24.9-11.73,4.78-16.3,3.06-3.62,7.14-4.82,11.53-4.57,10.58.6,16.05,6.53,16.85,17.2.36,4.85.29,9.52-1.65,14a16.2,16.2,0,0,1-17.58,9.31,15.46,15.46,0,0,1-13.37-14.22C378,268.65,377.77,266.65,377.63,265.22Z" transform="translate(-32.88 -32.5)"/></svg>