<svg xmlns="http://www.w3.org/2000/svg" width="17.555" height="17.548" viewBox="0 0 17.555 17.548">
  <path id="Icon_simple-cashapp" data-name="Icon simple-cashapp" d="M17.256,2.538A3.731,3.731,0,0,0,15.025.307,11.359,11.359,0,0,0,11.426,0H6.115A11.8,11.8,0,0,0,2.531.293,3.731,3.731,0,0,0,.3,2.531,11.547,11.547,0,0,0,0,6.115v5.318a11.8,11.8,0,0,0,.293,3.584,3.731,3.731,0,0,0,2.231,2.231,11.547,11.547,0,0,0,3.584.3h5.325a11.774,11.774,0,0,0,3.584-.293,3.731,3.731,0,0,0,2.238-2.238,11.547,11.547,0,0,0,.3-3.584V6.13a11.574,11.574,0,0,0-.3-3.592ZM12.742,5.925l-.68.68a.366.366,0,0,1-.49.007,3.657,3.657,0,0,0-2.355-.863c-.71,0-1.419.234-1.419.885s.761.878,1.639,1.207C10.972,8.353,12.245,9,12.245,10.5c0,1.639-1.273,2.765-3.35,2.889l-.19.878a.358.358,0,0,1-.351.285H7.044l-.066-.007a.366.366,0,0,1-.278-.432l.2-.929A4.784,4.784,0,0,1,4.8,12.04v-.007a.351.351,0,0,1,0-.5l.731-.71a.358.358,0,0,1,.49,0,3.537,3.537,0,0,0,2.48.966c.951,0,1.587-.4,1.587-1.039s-.644-.8-1.858-1.258C6.942,9.034,5.72,8.383,5.72,6.861c0-1.77,1.47-2.633,3.211-2.714l.183-.9a.351.351,0,0,1,.351-.278h1.3l.073.007a.35.35,0,0,1,.271.417l-.2,1a5.49,5.49,0,0,1,1.814,1.017l.015.015a.349.349,0,0,1,0,.5Z" fill="#707070"/>
</svg>
