<svg xmlns="http://www.w3.org/2000/svg" width="19.947" height="19.947" viewBox="0 0 19.947 19.947">
  <path id="Icon_awesome-key" data-name="Icon awesome-key" d="M19.947,6.857a6.86,6.86,0,0,1-8.136,6.737l-.935,1.052a.935.935,0,0,1-.7.314H8.727v1.558a.935.935,0,0,1-.935.935H6.233v1.558a.935.935,0,0,1-.935.935H.935A.935.935,0,0,1,0,19.012V15.971a.935.935,0,0,1,.274-.661l6.3-6.3a6.857,6.857,0,1,1,13.37-2.149ZM13.09,4.987a1.87,1.87,0,1,0,1.87-1.87A1.87,1.87,0,0,0,13.09,4.987Z" fill="#707070"/>
</svg>
