<svg xmlns="http://www.w3.org/2000/svg" width="17.278" height="17.278" viewBox="0 0 17.278 17.278">
  <path id="Icon_material-language" data-name="Icon material-language" d="M11.63,3a8.639,8.639,0,1,0,8.648,8.639A8.635,8.635,0,0,0,11.63,3Zm5.987,5.183H15.069a13.519,13.519,0,0,0-1.192-3.075A6.937,6.937,0,0,1,17.617,8.183ZM11.639,4.762a12.169,12.169,0,0,1,1.65,3.421h-3.3A12.169,12.169,0,0,1,11.639,4.762Zm-6.687,8.6a6.758,6.758,0,0,1,0-3.456h2.92a14.267,14.267,0,0,0-.121,1.728,14.267,14.267,0,0,0,.121,1.728Zm.708,1.728H8.209A13.519,13.519,0,0,0,9.4,18.17,6.9,6.9,0,0,1,5.661,15.094ZM8.209,8.183H5.661A6.9,6.9,0,0,1,9.4,5.108,13.519,13.519,0,0,0,8.209,8.183Zm3.43,10.332a12.169,12.169,0,0,1-1.65-3.421h3.3A12.169,12.169,0,0,1,11.639,18.515Zm2.022-5.149H9.617a12.71,12.71,0,0,1-.138-1.728,12.6,12.6,0,0,1,.138-1.728H13.66a12.6,12.6,0,0,1,.138,1.728A12.71,12.71,0,0,1,13.66,13.367Zm.216,4.8a13.519,13.519,0,0,0,1.192-3.075h2.548a6.937,6.937,0,0,1-3.741,3.075Zm1.529-4.8a14.267,14.267,0,0,0,.121-1.728,14.267,14.267,0,0,0-.121-1.728h2.92a6.758,6.758,0,0,1,0,3.456Z" transform="translate(-3 -3)" fill="#707070"/>
</svg>
