<svg xmlns="http://www.w3.org/2000/svg" width="20.339" height="20.339" viewBox="0 0 20.339 20.339">
  <path id="Icon_awesome-question-circle" data-name="Icon awesome-question-circle" d="M20.9,10.732A10.17,10.17,0,1,1,10.732.563,10.169,10.169,0,0,1,20.9,10.732Zm-9.9-6.807A5.311,5.311,0,0,0,6.226,6.54a.493.493,0,0,0,.111.667L7.76,8.285A.492.492,0,0,0,8.443,8.2c.733-.929,1.235-1.468,2.35-1.468.838,0,1.874.539,1.874,1.352,0,.614-.507.93-1.334,1.393-.965.541-2.241,1.214-2.241,2.9v.164a.492.492,0,0,0,.492.492h2.3a.492.492,0,0,0,.492-.492v-.055c0-1.167,3.411-1.216,3.411-4.374C15.784,5.729,13.316,3.925,11.005,3.925Zm-.273,10.17a1.886,1.886,0,1,0,1.886,1.886A1.888,1.888,0,0,0,10.732,14.095Z" transform="translate(-0.563 -0.563)" fill="#707070"/>
</svg>
