<svg xmlns="http://www.w3.org/2000/svg" width="52" height="52" viewBox="0 0 52 52">
  <g id="icon_currentlocation" transform="translate(-566.611 -483.341)">
    <circle id="Ellipse_17" data-name="Ellipse 17" cx="8.984" cy="8.984" r="8.984" transform="translate(583.627 500.357)" fill="#8592aa"/>
    <path id="Path_151" data-name="Path 151" d="M618.611,507.174H612.92a20.462,20.462,0,0,0-18.142-18.142v-5.691h-4.334v5.691A20.462,20.462,0,0,0,572.3,507.174h-5.691v4.334H572.3a20.46,20.46,0,0,0,18.142,18.141v5.692h4.334v-5.692a20.46,20.46,0,0,0,18.142-18.141h5.691Zm-26,18.26A16.093,16.093,0,1,1,608.7,509.341,16.111,16.111,0,0,1,592.611,525.434Z" fill="#8592aa"/>
  </g>
</svg>
