<svg id="Layer_2" data-name="Layer 2"
    xmlns="http://www.w3.org/2000/svg" width="31" height="31" viewBox="0 0 31 31">
    <g id="invisible_box" data-name="invisible box">
        <rect id="Rectangle_60" data-name="Rectangle 60" width="31" height="31" fill="none"/>
    </g>
    <g id="Q3_icons" data-name="Q3 icons" transform="translate(5.826 6.485)">
        <path id="Path_40" data-name="Path 40" d="M17.1,10.389,9.384,18.171a1.232,1.232,0,0,0,0,1.816L17.1,27.769a1.362,1.362,0,0,0,1.751.13,1.232,1.232,0,0,0,.13-1.945L13.4,20.376H27.152a1.3,1.3,0,0,0,0-2.594H13.4l5.577-5.577a1.232,1.232,0,0,0-.13-1.945,1.362,1.362,0,0,0-1.751.13Z" transform="translate(-8.985 -10.001)" fill="#707070"/>
    </g>
</svg>
