<svg id="Icon_ionic-ios-camera" data-name="Icon ionic-ios-camera" xmlns="http://www.w3.org/2000/svg" width="37.056" height="27.792" viewBox="0 0 37.056 27.792">
  <path id="Path_3" data-name="Path 3" d="M25.055,20.842a5.549,5.549,0,1,1-5.549-5.549A5.549,5.549,0,0,1,25.055,20.842Z" transform="translate(-0.978 -5.112)" fill="#707070"/>
  <path id="Path_4" data-name="Path 4" d="M38.613,12.507H33.354a1.566,1.566,0,0,1-1.158-.521C29.455,8.917,28.423,7.875,27.3,7.875H19.052c-1.129,0-2.239,1.042-4.989,4.121a1.536,1.536,0,0,1-1.148.511h-.4v-.772a.774.774,0,0,0-.772-.772H9.238a.774.774,0,0,0-.772.772v.772H7.742A3.129,3.129,0,0,0,4.5,15.47V32.454a3.341,3.341,0,0,0,3.233,3.213h30.88a3.093,3.093,0,0,0,2.943-3.213V15.47A2.876,2.876,0,0,0,38.613,12.507Zm-15.2,19.339a8.25,8.25,0,1,1,7.855-7.855A8.258,8.258,0,0,1,23.414,31.846ZM32.292,18.1a1.255,1.255,0,1,1,1.255-1.255A1.252,1.252,0,0,1,32.292,18.1Z" transform="translate(-4.5 -7.875)" fill="#707070"/>
</svg>
