<svg xmlns="http://www.w3.org/2000/svg" width="18" height="18" viewBox="0 0 18 18">
  <path id="Icon_awesome-facebook-messenger" data-name="Icon awesome-facebook-messenger" d="M9.583.563A8.7,8.7,0,0,0,.563,9.293,8.533,8.533,0,0,0,3.4,15.751c.3.273.241.43.292,2.113A.723.723,0,0,0,4.7,18.5c1.92-.846,1.945-.912,2.27-.824,5.563,1.531,11.593-2.029,11.593-8.385A8.662,8.662,0,0,0,9.583.563ZM15,7.281,12.35,11.475a1.356,1.356,0,0,1-1.956.36L8.285,10.258a.544.544,0,0,0-.653,0L4.788,12.415a.428.428,0,0,1-.621-.569L6.816,7.652a1.356,1.356,0,0,1,1.956-.36L10.88,8.869a.544.544,0,0,0,.653,0l2.846-2.155a.427.427,0,0,1,.62.567Z" transform="translate(-0.563 -0.563)" fill="#707070"/>
</svg>
