<svg xmlns="http://www.w3.org/2000/svg" width="27.144" height="25.477" viewBox="0 0 27.144 25.477">
  <path id="Icon_awesome-ticket-alt" data-name="Icon awesome-ticket-alt" d="M5.023,8.267H17.58V15.8H5.023Zm15.7,3.767A1.884,1.884,0,0,0,22.6,13.918v3.767a1.884,1.884,0,0,1-1.884,1.884H1.884A1.884,1.884,0,0,1,0,17.685V13.918a1.884,1.884,0,0,0,1.884-1.884A1.884,1.884,0,0,0,0,10.151V6.384A1.884,1.884,0,0,1,1.884,4.5H20.72A1.884,1.884,0,0,1,22.6,6.384v3.767A1.884,1.884,0,0,0,20.72,12.034ZM18.836,7.953a.942.942,0,0,0-.942-.942H4.709a.942.942,0,0,0-.942.942v8.162a.942.942,0,0,0,.942.942H17.894a.942.942,0,0,0,.942-.942Z" transform="matrix(0.809, -0.588, 0.588, 0.809, -2.645, 9.645)" fill="#707070"/>
</svg>
