<svg xmlns="http://www.w3.org/2000/svg" width="24.864" height="20.202" viewBox="0 0 24.864 20.202">
  <path id="Icon_awesome-list" data-name="Icon awesome-list" d="M3.885,18.915H.777A.777.777,0,0,0,0,19.692V22.8a.777.777,0,0,0,.777.777H3.885a.777.777,0,0,0,.777-.777V19.692A.777.777,0,0,0,3.885,18.915Zm0-15.54H.777A.777.777,0,0,0,0,4.152V7.26a.777.777,0,0,0,.777.777H3.885a.777.777,0,0,0,.777-.777V4.152A.777.777,0,0,0,3.885,3.375Zm0,7.77H.777A.777.777,0,0,0,0,11.922V15.03a.777.777,0,0,0,.777.777H3.885a.777.777,0,0,0,.777-.777V11.922A.777.777,0,0,0,3.885,11.145Zm20.2,8.547H8.547a.777.777,0,0,0-.777.777v1.554a.777.777,0,0,0,.777.777h15.54a.777.777,0,0,0,.777-.777V20.469A.777.777,0,0,0,24.087,19.692Zm0-15.54H8.547a.777.777,0,0,0-.777.777V6.483a.777.777,0,0,0,.777.777h15.54a.777.777,0,0,0,.777-.777V4.929A.777.777,0,0,0,24.087,4.152Zm0,7.77H8.547a.777.777,0,0,0-.777.777v1.554a.777.777,0,0,0,.777.777h15.54a.777.777,0,0,0,.777-.777V12.7A.777.777,0,0,0,24.087,11.922Z" transform="translate(0 -3.375)" fill="#00bb3e"/>
</svg>
