<svg xmlns="http://www.w3.org/2000/svg" width="17.128" height="11.419" viewBox="0 0 17.128 11.419">
  <path id="Icon_awesome-eye" data-name="Icon awesome-eye" d="M17.025,9.775A9.537,9.537,0,0,0,8.564,4.5,9.539,9.539,0,0,0,.1,9.776a.962.962,0,0,0,0,.868,9.537,9.537,0,0,0,8.461,5.275,9.539,9.539,0,0,0,8.461-5.276A.962.962,0,0,0,17.025,9.775ZM8.564,14.491a4.282,4.282,0,1,1,4.282-4.282A4.282,4.282,0,0,1,8.564,14.491Zm0-7.137a2.834,2.834,0,0,0-.753.113A1.423,1.423,0,0,1,5.822,9.457a2.848,2.848,0,1,0,2.742-2.1Z" transform="translate(0 -4.5)" fill="#707070"/>
</svg>
