<?xml version="1.0" standalone="no"?>
<!DOCTYPE svg PUBLIC "-//W3C//DTD SVG 20010904//EN"
 "http://www.w3.org/TR/2001/REC-SVG-20010904/DTD/svg10.dtd">
<svg version="1.0" xmlns="http://www.w3.org/2000/svg"
 width="200.000000pt" height="200.000000pt" viewBox="0 0 200.000000 200.000000"
 preserveAspectRatio="xMidYMid meet">

<g transform="translate(0.000000,200.000000) scale(0.100000,-0.100000)"
fill="#000000" stroke="none">
<path d="M789 1985 c-195 -37 -361 -126 -505 -269 -198 -198 -295 -446 -281
-721 7 -138 34 -242 97 -371 123 -254 347 -438 616 -509 153 -40 353 -41 378
-3 18 29 -4 53 -53 56 l-41 3 0 415 0 414 414 0 415 0 3 -41 c3 -49 27 -71 56
-53 38 25 37 225 -3 378 -36 138 -119 291 -216 400 -110 123 -305 242 -474
286 -105 28 -300 35 -406 15z m129 -237 l-3 -163 -157 -3 -157 -3 15 37 c47
112 155 237 237 274 70 32 68 38 65 -142z m188 117 c28 -18 67 -53 87 -77 41
-50 117 -177 117 -195 0 -10 -37 -13 -155 -13 l-155 0 0 166 0 166 28 -6 c15
-4 50 -22 78 -41z m-477 -61 c-27 -36 -66 -101 -87 -145 l-37 -79 -112 0 c-62
0 -113 4 -113 8 0 15 114 124 176 168 54 38 195 113 216 114 4 0 -15 -30 -43
-66z m735 14 c83 -44 276 -204 276 -230 0 -4 -51 -8 -114 -8 l-114 0 -34 72
c-18 40 -56 105 -85 145 l-51 72 50 -20 c28 -11 60 -25 72 -31z m-888 -334
c-16 -41 -47 -225 -53 -310 l-6 -94 -164 0 -163 0 0 43 c0 67 37 202 80 293
l39 84 136 0 c121 0 136 -2 131 -16z m442 -191 l-3 -208 -209 -3 -209 -2 7 82
c9 94 29 208 51 285 l16 53 174 0 175 0 -2 -207z m445 150 c23 -82 45 -217 48
-293 l3 -65 -207 -3 -207 -2 0 210 0 210 174 0 173 0 16 -57z m385 -30 c45
-98 69 -181 78 -272 l7 -61 -165 0 -165 0 -11 118 c-11 104 -25 189 -47 275
l-7 27 134 0 135 0 41 -87z m-1325 -507 c6 -85 37 -269 53 -310 5 -14 -10 -16
-128 -16 l-135 0 -25 48 c-52 98 -84 198 -97 307 l-7 65 166 0 167 0 6 -94z
m495 -113 l-3 -208 -172 -3 -172 -2 -16 52 c-20 67 -41 190 -50 291 l-7 77
211 0 211 0 -2 -207z m-377 -365 c19 -40 57 -104 85 -144 l52 -72 -37 15 c-61
26 -134 64 -181 96 -50 34 -180 156 -180 169 0 4 51 8 113 8 l113 0 35 -72z
m379 -94 l0 -165 -22 7 c-39 12 -94 42 -127 70 -39 32 -109 131 -145 202 l-26
52 160 0 160 0 0 -166z"/>
<path d="M1443 905 c-232 -50 -392 -285 -353 -515 40 -240 257 -409 494 -387
217 20 393 196 413 413 21 229 -137 441 -364 489 -82 18 -109 18 -190 0z m258
-108 c67 -32 152 -118 180 -181 101 -229 -33 -481 -279 -526 -115 -21 -226 15
-317 101 -77 72 -107 140 -113 249 -3 70 0 95 18 143 39 105 111 179 216 223
51 21 71 24 149 21 72 -3 101 -9 146 -30z"/>
<path d="M1512 738 c-8 -8 -12 -66 -12 -194 0 -153 3 -185 16 -198 18 -19 20
-19 45 -6 18 10 19 23 19 198 0 192 -4 212 -40 212 -9 0 -21 -5 -28 -12z"/>
<path d="M1512 238 c-7 -7 -12 -20 -12 -29 0 -43 72 -53 78 -11 6 42 -37 69
-66 40z"/>
</g>
</svg>
