
<svg version="1.0"
    xmlns="http://www.w3.org/2000/svg" width="39" height="26" viewBox="0 0 64.000000 42.501931" preserveAspectRatio="xMidYMid meet">
    <g transform="translate(0.000000,42.501931) scale(0.012355,-0.012355)" >
        <path d="M0 1720 l0 -1720 2590 0 2590 0 0 1720 0 1720 -2590 0 -2590 0 0
-1720z m2655 1038 c4 -13 56 -175 117 -360 l109 -338 382 -2 381 -3 -234 -169
c-316 -229 -380 -276 -380 -282 0 -3 15 -52 34 -107 81 -239 198 -608 195
-612 -2 -2 -35 20 -74 48 -38 28 -117 86 -175 127 -58 42 -162 118 -231 168
-70 51 -132 92 -139 92 -11 0 -228 -155 -530 -376 -46 -35 -86 -61 -88 -59 -4
3 106 348 189 598 22 65 37 122 34 126 -3 5 -41 35 -86 68 -45 32 -118 85
-163 118 -44 33 -133 97 -196 142 -63 46 -126 92 -140 103 l-25 20 382 0 382
0 109 338 c61 185 113 347 117 360 3 12 10 22 15 22 5 0 12 -10 15 -22z" fill="red"/>
    </g>
</svg>
