<svg version="1.0"
    xmlns="http://www.w3.org/2000/svg" width="39" height="26" viewBox="0 0 64.000000 38.400000" preserveAspectRatio="xMidYMid meet">
    <g transform="translate(0.000000,38.400000) scale(0.009697,-0.009697)" fill="#000000" stroke="none">
        <path d="M781 3956 c2 -2 418 -252 924 -556 506 -304 923 -554 928 -557 4 -2
7 248 7 556 l0 561 -932 0 c-512 0 -929 -2 -927 -4z" fill="rgba(0, 35, 125, 1)"/>
        <path d="M2908 3168 l-3 -793 -1452 -3 -1453 -2 0 -390 0 -390 1453 -2 1452
-3 3 -792 2 -793 390 0 390 0 2 793 3 792 1453 3 1452 2 0 390 0 390 -1452 2
-1453 3 -3 793 -2 792 -390 0 -390 0 -2 -792z" fill="rgba(208, 20, 44, 1)"/>
        <path d="M3960 3399 c0 -308 3 -558 8 -556 4 3 421 253 927 557 506 304 922
554 924 556 2 2 -415 4 -927 4 l-932 0 0 -561z" fill="rgba(0, 35, 125, 1)"/>
        <path d="M0 3065 l0 -425 712 0 c598 0 709 2 693 13 -42 29 -1394 837 -1399
837 -3 0 -6 -191 -6 -425z" fill="rgba(0, 35, 125, 1)"/>
        <path d="M5895 3074 c-379 -228 -697 -419 -705 -424 -9 -6 257 -10 698 -10
l712 0 0 425 c0 234 -3 425 -7 425 -5 -1 -318 -188 -698 -416z " fill="rgba(0, 35, 125, 1)"/>
        <path d="M0 895 c0 -234 3 -425 6 -425 5 0 1357 808 1399 837 16 11 -95 13
-693 13 l-712 0 0 -425z" fill="rgba(0, 35, 125, 1)"/>
        <path d="M5195 1307 c42 -29 1394 -837 1399 -837 3 0 6 191 6 425 l0 425 -712
0 c-598 0 -709 -2 -693 -13z" fill="rgba(0, 35, 125, 1)"/>
        <path d="M1707 562 l-927 -557 927 -3 c509 -1 928 -1 930 1 2 2 2 254 1 559
l-3 556 -928 -556z" fill="rgba(0, 35, 125, 1)"/>
        <path d="M3960 561 l0 -561 932 0 c512 0 929 2 927 4 -2 2 -418 252 -924 556
-506 304 -923 554 -927 557 -5 2 -8 -248 -8 -556z" fill="rgba(0, 35, 125, 1)"/>
    </g>
</svg>
