<svg xmlns="http://www.w3.org/2000/svg" width="16.079" height="14.069" viewBox="0 0 16.079 14.069">
  <path id="Icon_awesome-gift" data-name="Icon awesome-gift" d="M1,15.314a1,1,0,0,0,1,1H7.035V11.294H1Zm8.04,1h5.025a1,1,0,0,0,1-1v-4.02H9.044ZM15.074,6.27H13.752a2.738,2.738,0,0,0,.317-1.256A2.768,2.768,0,0,0,11.306,2.25c-1.306,0-2.151.669-3.235,2.145C6.988,2.919,6.143,2.25,4.836,2.25A2.768,2.768,0,0,0,2.073,5.014,2.7,2.7,0,0,0,2.39,6.27H1a1,1,0,0,0-1,1V9.787a.5.5,0,0,0,.5.5H15.577a.5.5,0,0,0,.5-.5V7.275A1,1,0,0,0,15.074,6.27Zm-10.241,0a1.256,1.256,0,1,1,0-2.512c.625,0,1.087.1,2.7,2.512h-2.7Zm6.472,0H8.6c1.614-2.4,2.063-2.512,2.7-2.512a1.256,1.256,0,0,1,0,2.512Z" transform="translate(0 -2.25)" fill="#fff"/>
</svg>
