<svg xmlns="http://www.w3.org/2000/svg" width="18.313" height="17.608" viewBox="0 0 18.313 17.608">
  <path id="Icon_ionic-ios-heart" data-name="Icon ionic-ios-heart" d="M16.757,3.938h-.044a5.009,5.009,0,0,0-4.182,2.289A5.009,5.009,0,0,0,8.349,3.938H8.305a4.977,4.977,0,0,0-4.93,4.974,10.715,10.715,0,0,0,2.1,5.842,36.875,36.875,0,0,0,7.052,6.792,36.875,36.875,0,0,0,7.052-6.792,10.715,10.715,0,0,0,2.1-5.842A4.977,4.977,0,0,0,16.757,3.938Z" transform="translate(-3.375 -3.938)" fill="#707070"/>
</svg>
