<svg xmlns="http://www.w3.org/2000/svg" width="23.792" height="15.862" viewBox="0 0 23.792 15.862">
  <path id="Icon_awesome-newspaper" data-name="Icon awesome-newspaper" d="M22.8,4.5H3.635a.991.991,0,0,0-.991.991v.33H.991A.991.991,0,0,0,0,6.813V18.048a2.313,2.313,0,0,0,2.313,2.313h19.5a1.983,1.983,0,0,0,1.983-1.983V5.491A.991.991,0,0,0,22.8,4.5ZM2.313,18.379a.33.33,0,0,1-.33-.33V7.8h.661V18.048A.33.33,0,0,1,2.313,18.379Zm9.748-.661H5.783a.5.5,0,0,1-.5-.5v-.33a.5.5,0,0,1,.5-.5h6.279a.5.5,0,0,1,.5.5v.33A.5.5,0,0,1,12.061,17.718Zm8.592,0H14.375a.5.5,0,0,1-.5-.5v-.33a.5.5,0,0,1,.5-.5h6.279a.5.5,0,0,1,.5.5v.33A.5.5,0,0,1,20.653,17.718Zm-8.592-3.965H5.783a.5.5,0,0,1-.5-.5v-.33a.5.5,0,0,1,.5-.5h6.279a.5.5,0,0,1,.5.5v.33A.5.5,0,0,1,12.061,13.753Zm8.592,0H14.375a.5.5,0,0,1-.5-.5v-.33a.5.5,0,0,1,.5-.5h6.279a.5.5,0,0,1,.5.5v.33A.5.5,0,0,1,20.653,13.753Zm0-3.965H5.783a.5.5,0,0,1-.5-.5V7.639a.5.5,0,0,1,.5-.5h14.87a.5.5,0,0,1,.5.5V9.292A.5.5,0,0,1,20.653,9.787Z" transform="translate(0 -4.5)" fill="currentColor"/>
</svg>
