<svg xmlns="http://www.w3.org/2000/svg" width="17.063" height="19.5" viewBox="0 0 17.063 19.5">
  <path id="Icon_awesome-bell" data-name="Icon awesome-bell" d="M8.531,19.5a2.437,2.437,0,0,0,2.436-2.437H6.095A2.437,2.437,0,0,0,8.531,19.5Zm8.2-5.7c-.736-.791-2.113-1.98-2.113-5.876A6.014,6.014,0,0,0,9.749,2.012V1.219a1.218,1.218,0,1,0-2.436,0v.794A6.014,6.014,0,0,0,2.441,7.922c0,3.9-1.377,5.086-2.113,5.876A1.19,1.19,0,0,0,0,14.625a1.22,1.22,0,0,0,1.223,1.219H15.84a1.22,1.22,0,0,0,1.223-1.219,1.189,1.189,0,0,0-.328-.827Z" transform="translate(0)" fill="#707070"/>
</svg>
