<svg xmlns="http://www.w3.org/2000/svg" width="13.145" height="15.022" viewBox="0 0 13.145 15.022">
  <path id="Icon_metro-file-picture" data-name="Icon metro-file-picture" d="M15.765,15.073H6.377V13.195L9.193,8.5l3.858,4.695,2.714-1.878Zm0-6.1a1.408,1.408,0,1,1-1.408-1.408A1.408,1.408,0,0,1,15.765,8.97Zm1.259-3.681a13.3,13.3,0,0,0-1.279-1.463,13.305,13.305,0,0,0-1.463-1.279,2.34,2.34,0,0,0-1.334-.619H5.672A1.175,1.175,0,0,0,4.5,3.1V15.777A1.175,1.175,0,0,0,5.672,16.95h10.8a1.175,1.175,0,0,0,1.174-1.174V6.623a2.34,2.34,0,0,0-.619-1.334Zm-1.943-.8a12.805,12.805,0,0,1,1.065,1.194H13.888V3.425A12.792,12.792,0,0,1,15.081,4.49ZM16.7,15.777a.238.238,0,0,1-.235.235H5.672a.238.238,0,0,1-.235-.235V3.1a.238.238,0,0,1,.235-.235h7.276V6.153a.469.469,0,0,0,.469.469H16.7Z" transform="translate(-4.499 -1.928)" fill="#707070"/>
</svg>
