<svg xmlns="http://www.w3.org/2000/svg" width="23.917" height="25.509" viewBox="0 0 23.917 25.509">
  <path id="Icon_awesome-shield-alt" data-name="Icon awesome-shield-alt" d="M23.572,4.171,14.005.185a2.4,2.4,0,0,0-1.839,0L2.6,4.171A2.389,2.389,0,0,0,1.125,6.378c0,9.891,5.705,16.727,11.037,18.949a2.4,2.4,0,0,0,1.839,0C18.27,23.548,25.042,17.4,25.042,6.378A2.392,2.392,0,0,0,23.572,4.171ZM13.088,22.238l0-18.984,8.764,3.652c-.164,7.544-4.091,13.01-8.759,15.332Z" transform="translate(-1.125 -0.002)" fill="#f9ce54"/>
</svg>
