<svg id="Layer_1" data-name="Layer 1" xmlns="http://www.w3.org/2000/svg" viewBox="0 0 241 239.09"><defs><style>.cls-1{fill:#f7ba17;}</style></defs><title>Untitled-1</title><path class="cls-1" d="M197.58,107.64v2.65q0,43.41,0,86.82c0,1.89-.51,2.71-2.13,3.33Q150.1,217.65,104.74,235c-.63.24-1.27.41-2.09.67v-2.38q0-43.55-.05-87.07c0-2.11.69-2.76,2.31-3.38q45.18-17.16,90.31-34.44C195.91,108.11,196.62,107.94,197.58,107.64Z" transform="translate(-28 -32.14)"/><path class="cls-1" d="M28.08,113.53,36.45,117c5.23,2.18,10.44,4.44,15.71,6.49,1.5.59,1.88,1.41,1.86,3.06-.09,5.45,0,10.91-.08,16.36,0,1.92.58,2.73,2.15,3.33,4,1.52,7.93,3.24,12.24,5V130.34L77,134c7.18,3,14.36,6,21.56,9a2.35,2.35,0,0,1,1.77,2.6q-.06,44.49,0,89a9.29,9.29,0,0,1-.13,1c-.87-.29-1.7-.51-2.5-.84Q64,220.6,30.25,206.56C28.57,205.87,28,205,28,203.05q.11-43.38,0-86.77Z" transform="translate(-28 -32.14)"/><path class="cls-1" d="M197.42,105c-10.34,4-20.26,7.76-30.19,11.54q-31.81,12.13-63.61,24.28a5.82,5.82,0,0,1-4.73-.07c-9.32-4-18.68-7.83-28-11.73-.68-.28-1.33-.62-2.4-1.11,7.43-2.85,14.43-5.55,21.44-8.22q36.24-13.83,72.49-27.66a5.55,5.55,0,0,1,4.48.09c9.32,4,18.68,7.82,28,11.71C195.6,104.14,196.27,104.48,197.42,105Z" transform="translate(-28 -32.14)"/><path class="cls-1" d="M28,111.17,67.74,96c18.19-6.93,36.37-13.88,54.59-20.72a5.88,5.88,0,0,1,4,.07c7.86,3.13,15.65,6.44,24,9.91-3.78,1.47-7.11,2.78-10.45,4.06q-42.09,16-84.19,32.05a3.47,3.47,0,0,1-2.32.27C45.09,118.3,36.88,114.86,28,111.17Z" transform="translate(-28 -32.14)"/><path class="cls-1" d="M167.58,256.24v15l-52.94-25.64L167.5,220v16.91c3.67-.67,7-1.14,10.28-1.88,36.26-8.21,64.72-38.56,70.69-75.32C256.53,110,224.35,63,175,53.27c-20.16-4-38.89-1.84-56.07,6C98.77,68.87,92.77,78.38,92.77,78.38l-32.28,12v0A112.86,112.86,0,0,1,89.21,55.18l.1-.08c1.61-1.24,3.24-2.44,4.86-3.59,0,0,.09-.06.11-.08l.13-.08A96.33,96.33,0,0,1,106,44.3a110.15,110.15,0,0,1,61.78-11.58A112.37,112.37,0,0,1,268.9,139.56C271.39,199.27,226.87,250,167.58,256.24Z" transform="translate(-28 -32.14)"/><path class="cls-1" d="M94.17,51.51c-1.62,1.15-3.25,2.35-4.86,3.59C91.8,53.1,93.56,51.91,94.17,51.51Z" transform="translate(-28 -32.14)"/></svg>