<svg xmlns="http://www.w3.org/2000/svg" width="18.177" height="18.181" viewBox="0 0 18.177 18.181">
  <path id="Icon_ionic-ios-settings" data-name="Icon ionic-ios-settings" d="M21.176,13.588a2.339,2.339,0,0,1,1.5-2.182,9.271,9.271,0,0,0-1.122-2.7,2.37,2.37,0,0,1-.951.2,2.334,2.334,0,0,1-2.135-3.285A9.243,9.243,0,0,0,15.77,4.5a2.337,2.337,0,0,1-4.364,0A9.271,9.271,0,0,0,8.7,5.622,2.334,2.334,0,0,1,6.569,8.907a2.293,2.293,0,0,1-.951-.2A9.476,9.476,0,0,0,4.5,11.411a2.338,2.338,0,0,1,0,4.364,9.271,9.271,0,0,0,1.122,2.7A2.335,2.335,0,0,1,8.708,21.56a9.325,9.325,0,0,0,2.7,1.122,2.333,2.333,0,0,1,4.355,0,9.271,9.271,0,0,0,2.7-1.122,2.337,2.337,0,0,1,3.082-3.082,9.325,9.325,0,0,0,1.122-2.7A2.35,2.35,0,0,1,21.176,13.588ZM13.631,17.37a3.787,3.787,0,1,1,3.787-3.787A3.786,3.786,0,0,1,13.631,17.37Z" transform="translate(-4.5 -4.5)" fill="#707070"/>
</svg>
