<svg xmlns="http://www.w3.org/2000/svg" width="18.313" height="12.819" viewBox="0 0 18.313 12.819">
  <path id="Icon_awesome-vote-yea" data-name="Icon awesome-vote-yea" d="M17.4,10.491H15.566v1.831h.641a.255.255,0,0,1,.275.229v.458a.255.255,0,0,1-.275.229H2.106a.255.255,0,0,1-.275-.229v-.458a.255.255,0,0,1,.275-.229h.641V10.491H.916A.915.915,0,0,0,0,11.406v2.747a.915.915,0,0,0,.916.916H17.4a.915.915,0,0,0,.916-.916V11.406A.915.915,0,0,0,17.4,10.491ZM14.65,12.322V3.174a.924.924,0,0,0-.924-.924H4.59a.926.926,0,0,0-.927.924v9.148ZM6.043,7.114l.73-.724a.3.3,0,0,1,.435,0l1.182,1.19,2.724-2.7a.3.3,0,0,1,.435,0l.724.73a.3.3,0,0,1,0,.435L8.6,9.689a.3.3,0,0,1-.435,0L6.043,7.549a.3.3,0,0,1,0-.435Z" transform="translate(0 -2.25)" fill="#707070"/>
</svg>
