<svg xmlns="http://www.w3.org/2000/svg" width="60.451" height="52.891" viewBox="0 0 60.451 52.891">
  <g id="exclamation-triangle-fill" transform="translate(-0.001 -2.247)">
    <path id="Path_15" data-name="Path 15" d="M33.928,4.391a4.268,4.268,0,0,0-7.4,0L.622,48.462a4.408,4.408,0,0,0,3.7,6.675h51.8a4.408,4.408,0,0,0,3.7-6.675ZM30.22,17.362a3.418,3.418,0,0,0-3.4,3.759l1.321,13.248a2.085,2.085,0,0,0,4.155,0l1.321-13.248a3.418,3.418,0,0,0-3.4-3.759Zm.008,22.665A3.778,3.778,0,1,0,34.006,43.8,3.778,3.778,0,0,0,30.228,40.027Z" transform="translate(0)" fill="#ec1c24" fill-rule="evenodd"/>
  </g>
</svg>
