<svg id="Group_233" data-name="Group 233" xmlns="http://www.w3.org/2000/svg" width="45.306" height="35.238" viewBox="0 0 45.306 35.238">
  <rect id="Rectangle_326" data-name="Rectangle 326" width="31.967" height="18.647" transform="translate(7.104 14.429)" fill="#f9ce54"/>
  <path id="Icon_awesome-shopping-basket" data-name="Icon awesome-shopping-basket" d="M45.306,16.723v1.259a1.888,1.888,0,0,1-1.888,1.888h-.629L40.735,34.247A3.776,3.776,0,0,1,37,37.488H8.308a3.776,3.776,0,0,1-3.738-3.242L2.517,19.869H1.888A1.888,1.888,0,0,1,0,17.981V16.723a1.888,1.888,0,0,1,1.888-1.888h5.3l8.4-11.548a2.517,2.517,0,1,1,4.071,2.961l-6.246,8.588H31.9L25.651,6.247a2.517,2.517,0,0,1,4.071-2.961l8.4,11.549h5.3A1.888,1.888,0,0,1,45.306,16.723ZM24.541,30.566v-8.81a1.888,1.888,0,1,0-3.776,0v8.81a1.888,1.888,0,1,0,3.776,0Zm8.81,0v-8.81a1.888,1.888,0,0,0-3.776,0v8.81a1.888,1.888,0,1,0,3.776,0Zm-17.619,0v-8.81a1.888,1.888,0,1,0-3.776,0v8.81a1.888,1.888,0,1,0,3.776,0Z" transform="translate(0 -2.25)" fill="#707070"/>
</svg>
