<svg id="Group_235" data-name="Group 235" xmlns="http://www.w3.org/2000/svg" width="44.046" height="35.238" viewBox="0 0 44.046 35.238">
  <path id="Path_86" data-name="Path 86" d="M8.888,0H20.443c4.909,0,8.277,4.433,8.277,9.338v1.332c0,4.9-3.29,9.224-8.2,9.224H8.86A9.172,9.172,0,0,1,0,10.656V8.88A8.884,8.884,0,0,1,8.888,0Z" transform="translate(15.325 15.317)" fill="#f9ce54"/>
  <path id="Icon_awesome-gifts" data-name="Icon awesome-gifts" d="M16.559,13.358a7.256,7.256,0,0,1,3.028-5.492,2.182,2.182,0,0,0-1.968-1.259H15.6l2.113-1.514a1.094,1.094,0,0,0,.255-1.535l-.64-.895a1.094,1.094,0,0,0-1.535-.255l-2.2,1.576.791-2.106A1.1,1.1,0,0,0,13.73.461L12.7.076A1.1,1.1,0,0,0,11.28.723L9.91,4.37,8.541.716A1.1,1.1,0,0,0,7.123.069L6.091.454a1.094,1.094,0,0,0-.64,1.418l.791,2.106L4.033,2.409A1.1,1.1,0,0,0,2.5,2.663l-.64.895a1.1,1.1,0,0,0,.255,1.535L4.226,6.607H2.2A2.2,2.2,0,0,0,0,8.809V33.035a2.2,2.2,0,0,0,2.2,2.2H13.826a4.373,4.373,0,0,1-.613-2.2V17.618A4.4,4.4,0,0,1,16.559,13.358ZM15.416,33.035a2.2,2.2,0,0,0,2.2,2.2H28.63V26.428H15.416Zm15.416,2.2H41.844a2.2,2.2,0,0,0,2.2-2.2V26.428H30.832ZM41.844,15.416h-1.4a5.041,5.041,0,0,0,.3-1.638,4.919,4.919,0,0,0-4.962-4.969c-3.31,0-5.224,3.283-6.049,5.182-.833-1.9-2.746-5.182-6.049-5.182a4.919,4.919,0,0,0-4.962,4.969,4.866,4.866,0,0,0,.3,1.638h-1.4a2.2,2.2,0,0,0-2.2,2.2v6.607H28.63V15.416h1.053l.048-.014.048.014h1.053v8.809H44.046V17.618A2.2,2.2,0,0,0,41.844,15.416Zm-18.72,0a2.588,2.588,0,0,1-.5-.33,1.69,1.69,0,0,1-.606-1.308,1.616,1.616,0,0,1,1.659-1.665c1.287,0,2.45,1.886,3.063,3.3Zm13.709-.33a2.588,2.588,0,0,1-.5.33h-3.62c.606-1.4,1.776-3.3,3.063-3.3a1.616,1.616,0,0,1,1.659,1.665A1.69,1.69,0,0,1,36.834,15.086Z" transform="translate(0 0.001)" fill="#707070"/>
</svg>
