<svg xmlns="http://www.w3.org/2000/svg" xmlns:xlink="http://www.w3.org/1999/xlink" width="36.132" height="36.132" viewBox="0 0 36.132 36.132">
  <defs>
    <clipPath id="clip-path">
      <path id="Icon_awesome-headset" data-name="Icon awesome-headset" d="M13.55,14.679a2.259,2.259,0,0,0-2.258-2.258H10.162a4.516,4.516,0,0,0-4.517,4.517v3.387a4.516,4.516,0,0,0,4.517,4.517h1.129a2.259,2.259,0,0,0,2.258-2.258ZM25.97,24.841a4.516,4.516,0,0,0,4.517-4.517V16.937A4.516,4.516,0,0,0,25.97,12.42H24.841a2.259,2.259,0,0,0-2.258,2.258v7.9a2.259,2.259,0,0,0,2.258,2.258ZM18.066,0C7.987,0,.323,8.386,0,18.066V19.2a1.129,1.129,0,0,0,1.129,1.129H2.258A1.129,1.129,0,0,0,3.387,19.2V18.066a14.679,14.679,0,1,1,29.357,0h-.008c.006.171.008,11.695.008,11.695a2.984,2.984,0,0,1-2.984,2.984H22.583A3.387,3.387,0,0,0,19.2,29.357H16.937a3.387,3.387,0,0,0,0,6.775H29.761a6.371,6.371,0,0,0,6.371-6.371V18.066C35.809,8.386,28.145,0,18.066,0Z" fill="#f9ce54"/>
    </clipPath>
  </defs>
  <g id="Group_261" data-name="Group 261" transform="translate(-125.81 -211.677)">
    <path id="Icon_awesome-headset-2" data-name="Icon awesome-headset" d="M13.55,14.679a2.259,2.259,0,0,0-2.258-2.258H10.162a4.516,4.516,0,0,0-4.517,4.517v3.387a4.516,4.516,0,0,0,4.517,4.517h1.129a2.259,2.259,0,0,0,2.258-2.258ZM25.97,24.841a4.516,4.516,0,0,0,4.517-4.517V16.937A4.516,4.516,0,0,0,25.97,12.42H24.841a2.259,2.259,0,0,0-2.258,2.258v7.9a2.259,2.259,0,0,0,2.258,2.258ZM18.066,0C7.987,0,.323,8.386,0,18.066V19.2a1.129,1.129,0,0,0,1.129,1.129H2.258A1.129,1.129,0,0,0,3.387,19.2V18.066a14.679,14.679,0,1,1,29.357,0h-.008c.006.171.008,11.695.008,11.695a2.984,2.984,0,0,1-2.984,2.984H22.583A3.387,3.387,0,0,0,19.2,29.357H16.937a3.387,3.387,0,0,0,0,6.775H29.761a6.371,6.371,0,0,0,6.371-6.371V18.066C35.809,8.386,28.145,0,18.066,0Z" transform="translate(125.81 211.677)" fill="#707070"/>
    <g id="Mask_Group_38" data-name="Mask Group 38" transform="translate(125.81 211.677)" clip-path="url(#clip-path)">
      <rect id="Rectangle_329" data-name="Rectangle 329" width="27.527" height="17.759" rx="7" transform="translate(4.747 11.269)" fill="#f9ce54"/>
    </g>
  </g>
</svg>
