<svg xmlns="http://www.w3.org/2000/svg" width="59.215" height="57.464" viewBox="0 0 59.215 57.464">
  <path id="Icon_awesome-phone-volume" data-name="Icon awesome-phone-volume" d="M9.012,46.939a30.765,30.765,0,0,1,0-43.51A1.592,1.592,0,0,1,10.981,3.2l6,3.751a1.591,1.591,0,0,1,.634,1.94l-3,7.5a1.591,1.591,0,0,1-1.636.992l-5.167-.517a24.594,24.594,0,0,0,0,16.621l5.167-.517a1.591,1.591,0,0,1,1.636.992l3,7.5a1.591,1.591,0,0,1-.634,1.94l-6,3.751a1.592,1.592,0,0,1-1.969-.224ZM22.881,8.84a5.93,5.93,0,0,1,0,6.023,1.116,1.116,0,0,1-1.733.239l-.553-.53a1.119,1.119,0,0,1-.209-1.334,2.969,2.969,0,0,0,0-2.773,1.119,1.119,0,0,1,.209-1.334l.553-.53a1.116,1.116,0,0,1,1.733.239ZM31.379.4a17.8,17.8,0,0,1,0,22.909,1.115,1.115,0,0,1-1.625.086l-.537-.515a1.113,1.113,0,0,1-.086-1.516,14.835,14.835,0,0,0,0-19.02A1.113,1.113,0,0,1,29.217.825L29.754.31A1.115,1.115,0,0,1,31.379.4ZM27.123,4.558a11.869,11.869,0,0,1,0,14.587,1.116,1.116,0,0,1-1.653.121l-.539-.517a1.11,1.11,0,0,1-.119-1.475,8.9,8.9,0,0,0,0-10.845,1.11,1.11,0,0,1,.119-1.475l.539-.517a1.116,1.116,0,0,1,1.653.121Z" transform="translate(0 27.631) rotate(-51)" fill="#707070"/>
</svg>
