<svg id="Group_237" data-name="Group 237" xmlns="http://www.w3.org/2000/svg" width="30.833" height="23.125" viewBox="0 0 30.833 23.125">
  <rect id="Rectangle_330" data-name="Rectangle 330" width="23.087" height="13.32" transform="translate(6.358 4.341)" fill="#f9ce54"/>
  <path id="Icon_material-more" data-name="Icon material-more" d="M28.264,4.5H8.993A2.418,2.418,0,0,0,6.95,5.631L0,16.063,6.95,26.482a2.588,2.588,0,0,0,2.133,1.143H28.264a2.577,2.577,0,0,0,2.569-2.569V7.069A2.577,2.577,0,0,0,28.264,4.5Zm-16.7,13.49a1.927,1.927,0,1,1,1.927-1.927A1.925,1.925,0,0,1,11.563,17.99Zm6.424,0a1.927,1.927,0,1,1,1.927-1.927A1.925,1.925,0,0,1,17.986,17.99Zm6.424,0a1.927,1.927,0,1,1,1.927-1.927A1.925,1.925,0,0,1,24.41,17.99Z" transform="translate(0 -4.5)" fill="#707070"/>
</svg>
