<svg id="Group_234" data-name="Group 234" xmlns="http://www.w3.org/2000/svg" width="26.429" height="35.238" viewBox="0 0 26.429 35.238">
  <path id="Union_10" data-name="Union 10" d="M3.552,30.19H0V0H12.432V10.655H22.2V30.19Z" transform="translate(1.775 1.998)" fill="#f9ce54"/>
  <path id="Icon_awesome-file-invoice" data-name="Icon awesome-file-invoice" d="M19.822,17.619H6.607v4.4H19.822ZM25.947,7.227,19.209.482A1.651,1.651,0,0,0,18.039,0h-.42V8.81h8.81V8.39A1.647,1.647,0,0,0,25.947,7.227ZM15.417,9.36V0H1.652A1.648,1.648,0,0,0,0,1.652V33.587a1.648,1.648,0,0,0,1.652,1.652H24.777a1.648,1.648,0,0,0,1.652-1.652V11.012h-9.36A1.657,1.657,0,0,1,15.417,9.36ZM4.4,4.955A.55.55,0,0,1,4.955,4.4h5.506a.55.55,0,0,1,.551.551v1.1a.55.55,0,0,1-.551.551H4.955A.55.55,0,0,1,4.4,6.057Zm0,4.4a.55.55,0,0,1,.551-.551h5.506a.55.55,0,0,1,.551.551v1.1a.55.55,0,0,1-.551.551H4.955a.55.55,0,0,1-.551-.551ZM22.024,30.283a.55.55,0,0,1-.551.551H15.967a.55.55,0,0,1-.551-.551v-1.1a.55.55,0,0,1,.551-.551h5.506a.55.55,0,0,1,.551.551Zm0-13.765v6.607a1.1,1.1,0,0,1-1.1,1.1H5.506a1.1,1.1,0,0,1-1.1-1.1V16.518a1.1,1.1,0,0,1,1.1-1.1H20.923A1.1,1.1,0,0,1,22.024,16.518Z" transform="translate(0 0)" fill="#707070"/>
</svg>
