<svg xmlns="http://www.w3.org/2000/svg" width="30.834" height="35.238" viewBox="0 0 30.834 35.238">
  <g id="Group_264" data-name="Group 264" transform="translate(-291 -117.056)">
    <path id="Icon_awesome-user-tie" data-name="Icon awesome-user-tie" d="M15.417,17.619a8.81,8.81,0,1,0-8.81-8.81A8.809,8.809,0,0,0,15.417,17.619Zm6.593,2.244L18.72,33.036l-2.2-9.36,2.2-3.854H12.113l2.2,3.854-2.2,9.36L8.823,19.863A9.234,9.234,0,0,0,0,29.072v2.863a3.3,3.3,0,0,0,3.3,3.3H27.53a3.3,3.3,0,0,0,3.3-3.3V29.072a9.234,9.234,0,0,0-8.823-9.209Z" transform="translate(291 117.056)" fill="#707070"/>
    <path id="Path_87" data-name="Path 87" d="M311.918,234.948s6.914-.067,6.713,0-2.259,3.876-2.259,3.876l2.664,11.527H311.39l2.719-11.527Z" transform="translate(-8.796 -98.057)" fill="#f9ce54"/>
  </g>
</svg>
