<svg xmlns="http://www.w3.org/2000/svg" width="16" height="16" viewBox="0 0 24 18"><defs><style>.a{fill:#707070;}</style></defs><path class="a" d="M26.784,10.284H25.106V7.765l-3.465-.053.018,2.571H11.249l.071-2.571-3.393.053v2.571l-1.714-.053A1.715,1.715,0,0,0,4.5,12V24a1.715,1.715,0,0,0,1.714,1.714H26.784A1.715,1.715,0,0,0,28.5,24V12A1.715,1.715,0,0,0,26.784,10.284ZM22.5,8.569h1.714V12H22.5ZM11.356,14.408a2.231,2.231,0,0,1,1.875,2.464,2.231,2.231,0,0,1-1.875,2.464A2.231,2.231,0,0,1,9.48,16.872a2.231,2.231,0,0,1,1.875-2.464ZM8.784,8.569H10.5V12H8.784ZM7.642,22.239s.2-1.63.665-1.938a6.574,6.574,0,0,1,1.791-.513s.862.921,1.229.921,1.228-.921,1.228-.921a6.554,6.554,0,0,1,1.792.513c.543.362.678,1.938.678,1.938H7.642Zm17.428-.813H17.356v-.857H25.07Zm0-1.714H17.356v-.857H25.07Zm0-1.714H17.356v-.857H25.07Zm0-1.714H17.356v-.857H25.07Z" transform="translate(-4.499 -7.712)"/></svg>