<svg xmlns="http://www.w3.org/2000/svg" width="16" height="16" viewBox="0 0 24.171 19.337"><defs><style>.a{fill:#707070;}</style></defs><path class="a" d="M8.46,9.668A4.834,4.834,0,1,0,3.626,4.834,4.834,4.834,0,0,0,8.46,9.668Zm3.626,2.417a2.382,2.382,0,0,1,.306-1.152,5.168,5.168,0,0,0-.548-.057h-.631a6.574,6.574,0,0,1-5.506,0H5.076A5.077,5.077,0,0,0,0,15.951v1.572a1.813,1.813,0,0,0,1.813,1.813H12.421a2.4,2.4,0,0,1-.336-1.209Zm10.877-1.209H21.754V7.855a3.021,3.021,0,0,0-6.043,0v3.021H14.5a1.209,1.209,0,0,0-1.209,1.209v6.043A1.209,1.209,0,0,0,14.5,19.337h8.46a1.209,1.209,0,0,0,1.209-1.209V12.085A1.209,1.209,0,0,0,22.962,10.877Zm-4.23,5.438a1.209,1.209,0,1,1,1.209-1.209A1.209,1.209,0,0,1,18.732,16.315Zm1.209-5.438H17.524V7.855a1.209,1.209,0,0,1,2.417,0Z"/></svg>