<svg xmlns="http://www.w3.org/2000/svg" width="16" height="16" viewBox="0 0 23.606 15.934"><defs><style>.a{fill:#707070;}</style></defs><path class="a" d="M.072,18.591V5.479q0-.023.068-.433l7.717,6.6-7.694,7.4a1.929,1.929,0,0,1-.091-.455ZM1.1,4.136a.981.981,0,0,1,.387-.068H22.266a1.289,1.289,0,0,1,.41.068l-7.74,6.624-1.024.819-2.026,1.662L9.86,11.58,8.836,10.76Zm.023,15.8L8.881,12.49l3,2.436,3-2.436,7.762,7.444a1.093,1.093,0,0,1-.387.068H1.483a1.031,1.031,0,0,1-.364-.068Zm14.8-8.286,7.694-6.6a1.359,1.359,0,0,1,.068.433V18.591a1.745,1.745,0,0,1-.068.455Z" transform="translate(-0.072 -4.068)"/></svg>