<svg xmlns="http://www.w3.org/2000/svg" width="13.983" height="15.981" viewBox="0 0 13.983 15.981">
  <path id="Icon_awesome-copy" data-name="Icon awesome-copy" d="M9.988,13.983v1.248a.749.749,0,0,1-.749.749H.749A.749.749,0,0,1,0,15.232V3.745A.749.749,0,0,1,.749,3H3v9.239a1.75,1.75,0,0,0,1.748,1.748Zm0-10.737V0H4.744A.749.749,0,0,0,4,.749V12.235a.749.749,0,0,0,.749.749h8.49a.749.749,0,0,0,.749-.749V4H10.737A.751.751,0,0,1,9.988,3.246Zm3.776-.968L11.706.219A.749.749,0,0,0,11.176,0h-.189V3h3V2.807a.749.749,0,0,0-.219-.53Z" fill="#f9ba09"/>
</svg>
