<svg xmlns="http://www.w3.org/2000/svg" width="19.248" height="16" viewBox="0 0 19.248 16">
  <path id="Icon_awesome-store" data-name="Icon awesome-store" d="M18.815,3.706,16.787.469A1,1,0,0,0,15.94,0H3.315a1,1,0,0,0-.847.469L.44,3.706A2.788,2.788,0,0,0,2.277,7.969,3.248,3.248,0,0,0,2.705,8,3.086,3.086,0,0,0,5.012,6.963a3.088,3.088,0,0,0,4.612,0,3.088,3.088,0,0,0,4.613,0A3.1,3.1,0,0,0,16.543,8a3.213,3.213,0,0,0,.428-.028A2.785,2.785,0,0,0,18.815,3.706ZM16.549,9a3.965,3.965,0,0,1-.922-.119V12h-12V8.881A4.14,4.14,0,0,1,2.705,9a4.216,4.216,0,0,1-.562-.038A3.93,3.93,0,0,1,1.63,8.85V15a1,1,0,0,0,1,1h14a1,1,0,0,0,1-1V8.85a3.191,3.191,0,0,1-.512.112A4.346,4.346,0,0,1,16.549,9Z" transform="translate(-0.004)" fill="#707070"/>
</svg>
